<?xml version="1.0" encoding="UTF-8"?>
<svg xmlns="http://www.w3.org/2000/svg" version="1.1" viewBox="0 0 3873 3000">
  <defs>
    <style>
      .cls-1, .cls-2 {
        stroke: #6b83fc;
      }

      .cls-1, .cls-2, .cls-3, .cls-4, .cls-5, .cls-6, .cls-7, .cls-8, .cls-9, .cls-10, .cls-11, .cls-12, .cls-13, .cls-14, .cls-15 {
        stroke-linecap: round;
        stroke-linejoin: round;
        stroke-width: 5.75px;
      }

      .cls-1, .cls-16, .cls-5, .cls-7, .cls-12, .cls-13 {
        fill: #fcfaf7;
      }

      .cls-2, .cls-3, .cls-4, .cls-17, .cls-6, .cls-8, .cls-9, .cls-10, .cls-14, .cls-15 {
        fill: none;
      }

      .cls-3 {
        stroke: #ef8e6b;
      }

      .cls-4 {
        stroke: #000;
      }

      .cls-18, .cls-17, .cls-16, .cls-19, .cls-20, .cls-21, .cls-22, .cls-23, .cls-24, .cls-25 {
        stroke-width: 0px;
      }

      .cls-18, .cls-11 {
        fill: #ef7e6b;
      }

      .cls-5, .cls-8 {
        stroke: #bc593b;
      }

      .cls-6, .cls-11 {
        stroke: #b74941;
      }

      .cls-7, .cls-9, .cls-10 {
        stroke: #ef7e6b;
      }

      .cls-19 {
        fill: #fcf4e6;
      }

      .cls-20, .cls-22 {
        fill: #000;
      }

      .cls-21 {
        fill: #6b83fc;
      }

      .cls-22, .cls-26 {
        opacity: .15;
      }

      .cls-23 {
        fill: #b74941;
      }

      .cls-24, .cls-27 {
        fill: #fec224;
      }

      .cls-10 {
        stroke-dasharray: 0 43.16;
      }

      .cls-12, .cls-27 {
        stroke: #fec224;
      }

      .cls-13, .cls-15 {
        stroke: #4056d0;
      }

      .cls-14 {
        stroke: #fff;
      }

      .cls-25 {
        fill: #4056d0;
      }

      .cls-27 {
        stroke-miterlimit: 10;
        stroke-width: 2.88px;
      }
    </style>
  </defs>
  <g id="_4" data-name="4">
    <g>
      <path class="cls-18" d="M2026,2121.69c3.42,30.77,16.48,68.62,79.89,64.78l-1.64,89.09s-106.63,39.33-142.88,20.45c-25.59-13.34-11.39-131.42-11.39-131.42,0,0,22.61-1.24,24.66-36.8,2.05-35.56,51.36-6.1,51.36-6.1Z"/>
      <rect class="cls-25" x="2136.43" y="2152.92" width="63.51" height="146.94"/>
      <circle class="cls-18" cx="2395.38" cy="1885.63" r="53.13"/>
      <circle class="cls-18" cx="2777.64" cy="1879.78" r="53.13"/>
      <path class="cls-6" d="M2397.88,1909.44c-12.88,0-23.33-10.44-23.33-23.33s10.44-23.33,23.33-23.33"/>
      <path class="cls-6" d="M2778.09,1856.34c12.95,0,23.44,10.5,23.44,23.44s-10.5,23.44-23.44,23.44"/>
      <path class="cls-18" d="M2752.15,1876.9c0,89.97-72.94,162.91-162.91,162.91s-162.88-72.94-162.88-162.91c0-15.19,2.07-29.87,5.98-43.82,11.34-40.74,38.12-75.04,73.66-96.19,24.37-14.53,52.83-22.87,83.24-22.87,22.79,0,44.45,4.69,64.16,13.12,42.73,18.33,76.05,54.38,90.63,98.95,5.26,16,8.11,33.06,8.11,50.81Z"/>
      <polyline class="cls-10" points="2270.46 2380.67 2032.93 2380.67 2032.93 2517.43"/>
      <line class="cls-6" x1="2588.45" y1="1877.1" x2="2585.83" y2="1898.45"/>
      <g>
        <g>
          <path class="cls-19" d="M2503.95,1908.83c-.17,0-.34,0-.51-.02-.06,0-.12,0-.18-.01-12.29-.33-22.02-10.22-22.15-22.5v-.29c0-12.42,10.11-22.63,22.53-22.76l30.16-.32c12.43,0,22.66,10.11,22.81,22.54v.22c0,2.27-.34,4.54-1,6.74-.02.06-.03.12-.05.18-3,9.4-11.61,15.77-21.48,15.87,0,0-30.07.34-30.13.34Z"/>
          <path class="cls-23" d="M2533.81,1860.06v5.75c10.85,0,19.78,8.82,19.93,19.66v.22c0,1.99-.3,3.98-.88,5.91-.02.07-.04.15-.06.22-2.64,8.17-10.14,13.7-18.75,13.78l-29.93.35c-.07,0-.13,0-.2,0-.07,0-.15,0-.22,0-.12-.01-.24-.02-.37-.02-10.73-.29-19.22-8.91-19.35-19.63v-.28c0-10.85,8.83-19.77,19.68-19.88l29.92-.32h.21s0-5.76,0-5.76M2533.81,1860.06c-.09,0-.18,0-.27,0l-29.92.32c-14.07.14-25.38,11.6-25.38,25.64v.32c.14,13.84,11.22,24.97,24.95,25.35.32.03.63.03.98.03l29.95-.35c11.42-.11,21.03-7.68,24.25-18.07v-.03c.72-2.39,1.12-4.92,1.12-7.57v-.26c-.17-14.1-11.62-25.38-25.68-25.38h0Z"/>
        </g>
        <path class="cls-23" d="M2558.37,1893.27v.03c-3.22,10.39-12.83,17.95-24.25,18.07l-29.95.35c-.34,0-.66,0-.98-.03-.35-1.78-.52-3.6-.52-5.47,0-16.23,13.15-29.35,29.35-29.35,11.57,0,21.58,6.68,26.36,16.4Z"/>
      </g>
      <g>
        <g>
          <path class="cls-19" d="M2638.61,1908.83c-.18,0-.34,0-.51-.02-.06,0-.12,0-.18,0-12.29-.33-22.02-10.22-22.15-22.5v-.29c0-12.42,10.11-22.63,22.53-22.76l30.16-.32c12.43,0,22.66,10.11,22.81,22.54v.22c0,2.27-.34,4.54-1,6.74-.02.06-.03.12-.05.18-3,9.4-11.61,15.77-21.48,15.87,0,0-30.07.34-30.13.34Z"/>
          <path class="cls-23" d="M2668.46,1860.06v5.75c10.85,0,19.78,8.82,19.93,19.66v.22c0,1.99-.3,3.97-.88,5.91-.02.07-.04.15-.06.22-2.64,8.17-10.14,13.7-18.75,13.78l-29.93.35c-.07,0-.13,0-.2,0-.07,0-.14,0-.21,0-.12-.01-.24-.02-.37-.02-10.73-.29-19.22-8.91-19.35-19.63v-.28c0-10.85,8.83-19.77,19.68-19.88l29.92-.32h.21s0-5.76,0-5.76M2668.46,1860.06c-.09,0-.18,0-.27,0l-29.92.32c-14.07.14-25.38,11.6-25.38,25.64v.32c.14,13.84,11.22,24.97,24.95,25.35.32.03.63.03.98.03l29.95-.35c11.42-.11,21.03-7.68,24.25-18.07v-.03c.72-2.39,1.12-4.92,1.12-7.57v-.26c-.17-14.1-11.62-25.38-25.69-25.38h0Z"/>
        </g>
        <path class="cls-23" d="M2693.03,1893.27v.03c-3.22,10.39-12.83,17.95-24.25,18.07l-29.95.35c-.34,0-.66,0-.98-.03-.35-1.78-.52-3.6-.52-5.47,0-16.23,13.15-29.35,29.35-29.35,11.57,0,21.58,6.68,26.36,16.4Z"/>
      </g>
      <polyline class="cls-10" points="2097.71 1804.85 2275.26 1804.85 2275.26 1965.6"/>
      <polyline class="cls-10" points="2745.51 1941.6 3011.83 1941.6 3011.83 1754.46"/>
      <path class="cls-13" d="M2965.78,2544.96v62.38c0,18.39-10.99,34.24-26.79,41.29-5.61,2.5-11.85,3.91-18.41,3.91h-771.18c-24.95,0-45.17-20.26-45.17-45.2v-62.38c0-24.97,20.23-45.2,45.17-45.2h771.18c12.69,0,24.14,5.21,32.34,13.64.46.43.89.92,1.29,1.38,7.19,8,11.57,18.59,11.57,30.18Z"/>
      <path class="cls-13" d="M2880.65,1961.69v479.15c0,13.87-4.6,26.67-12.37,36.97-.06.09-.14.2-.23.29-5.24,6.85-11.88,12.57-19.51,16.72-3.74,2.04-7.77,3.71-11.94,4.95-5.5,1.64-11.34,2.5-17.38,2.5h-575.94c-6.01,0-11.85-.86-17.35-2.5-25.49-7.48-44.08-31.05-44.08-58.93v-479.15c0-33.95,27.51-61.46,61.43-61.46h575.94c29.43,0,54.06,20.72,60.05,48.4.89,4.2,1.38,8.57,1.38,13.06Z"/>
      <rect class="cls-13" x="2231.71" y="1988.3" width="594.47" height="408.55" rx="61.43" ry="61.43"/>
      <rect class="cls-21" x="2538.62" y="2065.63" width="210" height="179.73" rx="21.97" ry="21.97"/>
      <rect class="cls-21" x="2299.5" y="2034.7" width="160.37" height="304.16" rx="18.66" ry="18.66"/>
      <line class="cls-13" x1="2311.48" y1="2063.27" x2="2445.24" y2="2063.27"/>
      <rect class="cls-25" x="2388.35" y="2149.11" width="299.03" height="202.01" rx="31.26" ry="31.26"/>
      <g class="cls-26">
        <rect class="cls-20" x="2195.34" y="2514.78" width="272.4" height="133.84" rx="29.44" ry="29.44"/>
        <rect class="cls-20" x="2467.53" y="2514.78" width="272.4" height="133.84" rx="29.44" ry="29.44"/>
        <path class="cls-20" d="M2954.22,2514.78c7.19,8,11.57,18.59,11.57,30.18v62.38c0,18.39-10.99,34.24-26.79,41.29h-169.84c-15.42,0-28.08-11.88-29.32-26.99v-.09c-.09-.78-.12-1.55-.12-2.36v-74.98c0-.81.03-1.58.12-2.36v-.09c1.24-15.11,13.9-26.99,29.32-26.99h185.06Z"/>
        <path class="cls-20" d="M3012.14,2544.21v74.98c0,.89-.03,1.76-.12,2.62-.09-.86-.12-1.73-.12-2.62v-74.98c0-.89.03-1.76.12-2.62.09.86.12,1.73.12,2.62Z"/>
        <path class="cls-20" d="M3012.14,2544.21v74.98c0,.89-.03,1.76-.12,2.62-.09-.86-.12-1.73-.12-2.62v-74.98c0-.89.03-1.76.12-2.62.09.86.12,1.73.12,2.62Z"/>
        <rect class="cls-20" x="2323.67" y="2379.55" width="272.4" height="133.84" rx="29.44" ry="29.44"/>
        <path class="cls-20" d="M2868.28,2408.98v74.98c0,.89-.03,1.76-.12,2.62-.43,4.83-2.01,9.32-4.49,13.18-5.24,8.2-14.41,13.64-24.86,13.64h-213.52c-9.32,0-17.64-4.34-23.02-11.13-.66-.81-1.24-1.64-1.81-2.5-2.5-3.91-4.09-8.46-4.49-13.35-.09-.81-.12-1.61-.12-2.45v-74.98c0-.83.03-1.64.12-2.45.98-11.94,9.06-21.87,20.05-25.49,2.91-.98,6.04-1.5,9.27-1.5h213.52c3.25,0,6.39.52,9.29,1.5,10.9,3.63,18.99,13.47,20.05,25.32.09.86.12,1.73.12,2.62Z"/>
        <path class="cls-20" d="M2880.65,2440.83c0,13.87-4.6,26.67-12.37,36.97v6.16c0,.89-.03,1.76-.12,2.62-.09-.86-.12-1.73-.12-2.62v-74.98c0-.89.03-1.76.12-2.62.78-8.92,5.55-16.69,12.49-21.52v55.99Z"/>
        <path class="cls-20" d="M2920.58,2499.76c12.69,0,24.14,5.21,32.34,13.64h-55.42c-10.44,0-19.62-5.44-24.86-13.64h47.93Z"/>
        <path class="cls-20" d="M2976.43,2379.55c-2.91.98-6.04,1.5-9.27,1.5h-78.95c2.91-.98,6.04-1.5,9.29-1.5h78.92Z"/>
        <rect class="cls-20" x="2452" y="2247.2" width="272.4" height="133.84" rx="29.44" ry="29.44"/>
        <path class="cls-20" d="M2753.65,2247.2h127v133.85h-127c-3.25,0-6.39-.52-9.29-1.5-10.93-3.63-18.99-13.47-20.05-25.32-.09-.86-.12-1.73-.12-2.62v-74.98c0-.89.03-1.76.12-2.62,1.32-15.05,13.95-26.82,29.35-26.82Z"/>
        <path class="cls-20" d="M2976.43,2379.55c-2.91.98-6.04,1.5-9.27,1.5h-78.95c2.91-.98,6.04-1.5,9.29-1.5h78.92Z"/>
        <rect class="cls-20" x="2588.96" y="2111.97" width="272.4" height="133.84" rx="29.44" ry="29.44"/>
      </g>
      <line class="cls-2" x1="2400.05" y1="2183.49" x2="2675.63" y2="2183.49"/>
      <g>
        <path class="cls-5" d="M2522.4,2572.98v74.98c0,.78-.03,1.53-.09,2.27v.17c-1.27,15.11-13.93,26.99-29.35,26.99h-213.52c-16.26,0-29.43-13.18-29.43-29.43v-74.98c0-16.26,13.18-29.43,29.43-29.43h213.52c15.42,0,28.08,11.88,29.35,26.99v.17c.06.75.09,1.5.09,2.27Z"/>
        <path class="cls-5" d="M2794.59,2572.98v74.98c0,.78-.03,1.55-.09,2.3v.14c-1.24,14.79-13.38,26.5-28.37,26.96-.32.03-.66.03-.98.03h-213.52c-1.47,0-2.93-.12-4.34-.32-13.41-1.99-23.85-13.01-24.97-26.67v-.14c-.09-.75-.12-1.52-.12-2.3v-74.98c0-.78.03-1.55.12-2.3v-.14c1.24-15.11,13.9-26.99,29.32-26.99h213.52c14.16,0,25.98,9.98,28.77,23.31.29,1.21.46,2.42.58,3.68v.14c.06.75.09,1.52.09,2.3Z"/>
        <path class="cls-5" d="M3066.8,2572.98v74.98c0,.89-.03,1.76-.12,2.62-1.32,15.05-13.98,26.82-29.35,26.82h-213.52c-7.91,0-15.11-3.14-20.37-8.23-5.04-4.8-8.34-11.39-8.95-18.76v-.14c-.09-.75-.12-1.52-.12-2.3v-74.98c0-.78.03-1.55.12-2.3v-.14c.09-1.27.26-2.47.55-3.68,2.79-13.32,14.62-23.31,28.77-23.31h213.52c15.36,0,28.02,11.77,29.35,26.82.09.86.12,1.73.12,2.62Z"/>
        <path class="cls-5" d="M3338.99,2572.98v74.98c0,11.08-6.13,20.74-15.19,25.75-4.2,2.33-9.06,3.68-14.24,3.68h-213.52c-6.7,0-12.86-2.24-17.81-6.01t-.03-.03c-6.39-4.83-10.76-12.26-11.51-20.77-.09-.86-.12-1.73-.12-2.62v-74.98c0-.89.03-1.76.12-2.62,1.32-15.05,13.95-26.82,29.35-26.82h213.52c14.79,0,27.05,10.9,29.12,25.12.2,1.41.32,2.85.32,4.32Z"/>
        <rect class="cls-5" x="2378.34" y="2408.33" width="272.4" height="133.84" rx="29.44" ry="29.44"/>
        <rect class="cls-5" x="2650.53" y="2408.33" width="272.4" height="133.84" rx="29.44" ry="29.44"/>
        <path class="cls-5" d="M3195.13,2437.75v74.98c0,16.26-13.18,29.43-29.43,29.43h-213.52c-15.36,0-28-11.74-29.35-26.76v-.06c-.09-.86-.12-1.73-.12-2.62v-74.98c0-.89.03-1.76.12-2.62,1.06-11.85,9.12-21.69,20.05-25.32,2.91-.98,6.04-1.5,9.29-1.5h213.52c16.26,0,29.43,13.18,29.43,29.43Z"/>
        <rect class="cls-5" x="2506.67" y="2275.97" width="272.4" height="133.84" rx="29.44" ry="29.44"/>
        <path class="cls-5" d="M3051.27,2305.4v74.98c0,13.01-8.46,24.05-20.17,27.94-2.91.98-6.04,1.5-9.27,1.5h-213.52c-3.25,0-6.39-.52-9.29-1.5-10.93-3.63-18.99-13.47-20.05-25.32-.09-.86-.12-1.73-.12-2.62v-74.98c0-.89.03-1.76.12-2.62.86-9.78,6.5-18.18,14.59-22.85,4.32-2.53,9.38-3.97,14.76-3.97h213.52c10.9,0,20.46,5.96,25.52,14.79,2.47,4.32,3.91,9.32,3.91,14.65Z"/>
        <path class="cls-5" d="M2916.04,2170.17v74.98c0,16.26-13.18,29.43-29.43,29.43h-213.52c-16.28,0-29.46-13.18-29.46-29.43v-74.98c0-16.26,13.18-29.43,29.46-29.43h213.52c3.91,0,7.63.78,11.05,2.16,10.79,4.37,18.39,14.93,18.39,27.28Z"/>
      </g>
      <path class="cls-18" d="M3017.8,2534.55c112.99,1.88,144.55-159.34,147.01-252.66,2.46-93.32,7.28-180.52-36.92-185.43-44.21-4.91-44.95,70.89-73.02,71.89-31.45,1.12,18.79-192.49-59.54-190.97-61.43,1.19-26.96,217.93-57.29,215.68-27.05-2-3.01-115.47-56.17-108.96-55.04,6.74-41.24,168.32-31.42,229.72,9.82,61.4,32.54,218.49,167.34,220.74Z"/>
      <path class="cls-24" d="M3012.18,2488.5c-76.26.97-105.59-76.39-113.84-134.9-6.73-47.72-4.91-93.17,24.92-95.7,29.84-2.53,30.34,36.59,49.28,37.1,21.23.58-12.68-99.34,40.18-98.56,41.47.62,18.2,112.47,38.67,111.31,18.26-1.03,2.03-59.59,37.91-56.23,37.15,3.48,29.84,83.49,26.22,115.66-3.97,35.3-12.36,120.16-103.35,121.32Z"/>
      <path class="cls-7" d="M3015.65,2463.44c41.11.52,55.85-35.35,56.75-61.31.89-25.96,2.65-50.22-13.43-51.59-16.08-1.37-16.35,19.72-26.57,20-11.44.31,6.84-53.55-21.66-53.13-22.35.33-9.81,60.63-20.84,60-9.84-.56-1.09-32.12-20.44-30.31-20.03,1.88-15,46.83-11.43,63.91,3.57,17.08,8.58,51.8,57.62,52.43Z"/>
      <rect class="cls-12" x="2007.13" y="2497.22" width="50.71" height="50.71" rx="12.6" ry="12.6"/>
      <rect class="cls-12" x="2070.14" y="1781.1" width="50.71" height="50.71" rx="12.6" ry="12.6"/>
      <g class="cls-26">
        <path class="cls-20" d="M2402.34,2660.57c0,6.27-1.96,12.08-5.29,16.83h-48.16c-3.37-4.75-5.32-10.56-5.32-16.83,0-16.2,13.18-29.38,29.41-29.38s29.38,13.18,29.38,29.38Z"/>
        <path class="cls-20" d="M2491.82,2660.57c0,6.27-1.96,12.08-5.29,16.83h-48.17c-3.34-4.75-5.29-10.56-5.29-16.83,0-16.2,13.15-29.38,29.38-29.38s29.38,13.18,29.38,29.38Z"/>
        <path class="cls-20" d="M2584.61,2570.71v106.69h-32.97c-1.47,0-2.93-.12-4.34-.32v-60.68c0-1.5-1.9-2.16-2.82-1.01l-17.52,21.87c-1.12,1.38-2.99,1.81-4.55,1.21-.06-.03-.14-.06-.2-.09-.29-.14-.58-.32-.83-.52l-16-12.83c-1.7-1.38-1.99-3.88-.6-5.58l17.44-21.72.2-.26,23.33-29.09c.83-1.04,2.1-1.64,3.39-1.64l31.68.14c2.1.03,3.8,1.73,3.8,3.83Z"/>
        <path class="cls-20" d="M2803.45,2570.71v98.46c-5.04-4.8-8.34-11.39-8.95-18.76-1.24,14.79-13.38,26.5-28.37,26.96v-60.97c0-1.5-1.9-2.16-2.82-1.01l-17.55,21.87c-1.35,1.7-3.86,1.99-5.55.6l-16-12.83c-1.73-1.38-1.99-3.88-.6-5.58l40.97-51.07c.83-1.04,2.07-1.64,3.39-1.64l25.95.12h1.12l4.6.03c2.1.03,3.8,1.73,3.8,3.83Z"/>
        <path class="cls-20" d="M3279.98,2570.71v106.69h-37.32v-61c0-1.5-1.87-2.16-2.82-1.01l-17.52,21.87c-1.38,1.7-3.88,1.99-5.58.6l-16-12.83c-1.7-1.38-1.99-3.88-.6-5.58l40.97-51.07c.83-1.04,2.1-1.64,3.42-1.64l31.65.14c2.1.03,3.8,1.73,3.8,3.83Z"/>
        <path class="cls-20" d="M2655.48,2565.16c-20.37,0-36.89,16.52-36.89,36.86v51.07c0,9.32,3.45,17.81,9.18,24.31h55.39c5.7-6.5,9.18-14.99,9.18-24.31v-51.07c0-20.34-16.51-36.86-36.86-36.86ZM2670.26,2650.27c0,8.17-6.62,14.82-14.79,14.82s-14.82-6.65-14.82-14.82v-41.46c0-8.17,6.62-14.82,14.82-14.82s14.79,6.65,14.79,14.82v41.46Z"/>
        <path class="cls-20" d="M2879.87,2565.16c-20.37,0-36.89,16.52-36.89,36.86v51.07c0,9.32,3.48,17.81,9.21,24.31h55.36c5.73-6.5,9.18-14.99,9.18-24.31v-51.07c0-20.34-16.52-36.86-36.86-36.86ZM2894.66,2650.27c0,8.17-6.62,14.82-14.79,14.82-4.09,0-7.8-1.67-10.47-4.34-2.7-2.68-4.34-6.39-4.34-10.47v-41.46c0-8.17,6.62-14.82,14.82-14.82,4.09,0,7.77,1.67,10.47,4.34,2.65,2.68,4.32,6.39,4.32,10.47v41.46Z"/>
        <path class="cls-20" d="M2986.82,2565.16c-20.37,0-36.86,16.52-36.86,36.86v51.07c0,9.32,3.45,17.81,9.18,24.31h55.39c5.73-6.5,9.18-14.99,9.18-24.31v-51.07c0-20.34-16.52-36.86-36.89-36.86ZM3001.63,2650.27c0,8.17-6.65,14.82-14.82,14.82s-14.82-6.65-14.82-14.82v-41.46c0-8.17,6.65-14.82,14.82-14.82s14.82,6.65,14.82,14.82v41.46Z"/>
        <path class="cls-20" d="M3338.67,2568.67c-12.52,5.87-21.21,18.62-21.21,33.35v51.07c0,7.65,2.33,14.76,6.33,20.63,9.06-5.01,15.19-14.67,15.19-25.75v-74.98c0-1.47-.11-2.91-.32-4.32Z"/>
        <circle class="cls-20" cx="3112.35" cy="2590.92" r="20.53"/>
        <path class="cls-20" d="M3158.39,2643.36c0,13.44-5.41,25.52-14.13,34.04h-48.22c-6.7,0-12.86-2.24-17.81-6.01t-.03-.03c-5.61-7.8-8.95-17.46-8.95-28,0-8.95,2.42-17.32,6.65-24.43,4.46-7.6,10.99-13.75,18.76-17.61,5.81-2.93,12.31-4.55,19.16-4.55,5.96,0,11.65,1.21,16.83,3.45,16.28,6.93,27.74,23.62,27.74,43.13Z"/>
        <line class="cls-4" x1="3054.9" y1="2607.07" x2="3076.08" y2="2619.03"/>
        <line class="cls-4" x1="3042.95" y1="2644.7" x2="3068.72" y2="2645.79"/>
        <line class="cls-4" x1="3173.09" y1="2606.39" x2="3151.91" y2="2618.34"/>
        <line class="cls-4" x1="3185.05" y1="2644.02" x2="3159.11" y2="2644.29"/>
        <line class="cls-4" x1="3158.96" y1="2677.4" x2="3151.91" y2="2672.57"/>
        <polyline class="cls-17" points="3113.82 2677.4 3113.82 2611.37 3113.82 2596.78"/>
        <line class="cls-4" x1="3091.44" y1="2559.09" x2="3100.07" y2="2572.2"/>
        <line class="cls-4" x1="3120.87" y1="2572.2" x2="3128.55" y2="2557.81"/>
      </g>
      <rect class="cls-12" x="2986.09" y="1747.74" width="50.71" height="50.71" rx="12.6" ry="12.6"/>
      <g>
        <circle class="cls-25" cx="2390.21" cy="2680.72" r="29.38"/>
        <circle class="cls-25" cx="2479.71" cy="2680.72" r="29.38"/>
        <circle class="cls-25" cx="3476.54" cy="2680.72" r="29.38"/>
        <circle class="cls-25" cx="3564.62" cy="2680.72" r="29.38"/>
        <path class="cls-21" d="M2563.01,2588.51l-40.99,51.09c-1.37,1.71-1.1,4.2.61,5.57l16,12.84c1.71,1.37,4.2,1.1,5.57-.61l17.53-21.85c.94-1.17,2.82-.5,2.82.99v70.61c0,1.63,1.32,2.96,2.96,2.96h31.42c1.63,0,2.96-1.32,2.96-2.96v-116.3c0-2.1-1.7-3.81-3.8-3.82l-31.67-.14c-1.32,0-2.57.59-3.4,1.62Z"/>
        <path class="cls-21" d="M2781.85,2588.51l-40.99,51.09c-1.37,1.71-1.1,4.2.61,5.57l16,12.84c1.71,1.37,4.2,1.1,5.57-.61l17.53-21.85c.94-1.17,2.82-.5,2.82.99v70.61c0,1.63,1.32,2.96,2.96,2.96h31.42c1.63,0,2.96-1.32,2.96-2.96v-116.3c0-2.1-1.7-3.81-3.8-3.82l-31.67-.14c-1.32,0-2.57.59-3.4,1.62Z"/>
        <path class="cls-21" d="M3258.38,2588.51l-40.99,51.09c-1.37,1.71-1.1,4.2.61,5.57l16,12.84c1.71,1.37,4.2,1.1,5.57-.61l17.53-21.85c.94-1.17,2.82-.5,2.82.99v70.61c0,1.63,1.32,2.96,2.96,2.96h31.42c1.63,0,2.96-1.32,2.96-2.96v-116.3c0-2.1-1.7-3.81-3.8-3.82l-31.67-.14c-1.32,0-2.57.59-3.4,1.62Z"/>
        <path class="cls-21" d="M2672.73,2585.3c-20.37,0-36.88,16.51-36.88,36.87v51.06c0,20.37,16.51,36.87,36.88,36.87s36.88-16.51,36.88-36.87v-51.06c0-20.37-16.51-36.87-36.88-36.87ZM2687.54,2670.41c0,8.18-6.63,14.81-14.81,14.81s-14.81-6.63-14.81-14.81v-41.47c0-8.18,6.63-14.81,14.81-14.81s14.81,6.63,14.81,14.81v41.47Z"/>
        <path class="cls-21" d="M2897.12,2585.3h0c-20.37,0-36.88,16.51-36.88,36.87v51.06c0,20.37,16.51,36.87,36.88,36.87h0c20.37,0,36.88-16.51,36.88-36.87v-51.06c0-20.37-16.51-36.87-36.88-36.87ZM2911.93,2670.41c0,8.18-6.63,14.81-14.81,14.81h0c-8.18,0-14.81-6.63-14.81-14.81v-41.47c0-8.18,6.63-14.81,14.81-14.81h0c8.18,0,14.81,6.63,14.81,14.81v41.47Z"/>
        <path class="cls-21" d="M3004.08,2585.3h0c-20.37,0-36.88,16.51-36.88,36.87v51.06c0,20.37,16.51,36.87,36.88,36.87h0c20.37,0,36.88-16.51,36.88-36.87v-51.06c0-20.37-16.51-36.87-36.88-36.87ZM3018.89,2670.41c0,8.18-6.63,14.81-14.81,14.81s-14.81-6.63-14.81-14.81v-41.47c0-8.18,6.63-14.81,14.81-14.81s14.81,6.63,14.81,14.81v41.47Z"/>
        <path class="cls-21" d="M3371.62,2585.3c-20.37,0-36.88,16.51-36.88,36.87v51.06c0,20.37,16.51,36.87,36.88,36.87s36.88-16.51,36.88-36.87v-51.06c0-20.37-16.51-36.87-36.88-36.87ZM3386.43,2670.41c0,8.18-6.63,14.81-14.81,14.81s-14.81-6.63-14.81-14.81v-41.47c0-8.18,6.63-14.81,14.81-14.81s14.81,6.63,14.81,14.81v41.47Z"/>
        <g>
          <circle class="cls-13" cx="3129.61" cy="2611.06" r="20.53"/>
          <ellipse class="cls-13" cx="3131.09" cy="2663.51" rx="44.56" ry="46.6"/>
          <line class="cls-13" x1="3072.17" y1="2627.21" x2="3093.34" y2="2639.17"/>
          <line class="cls-13" x1="3060.21" y1="2664.84" x2="3085.98" y2="2665.93"/>
          <line class="cls-13" x1="3071.48" y1="2708.42" x2="3093.34" y2="2693.39"/>
          <line class="cls-13" x1="3190.36" y1="2626.53" x2="3169.18" y2="2638.48"/>
          <line class="cls-13" x1="3202.31" y1="2664.16" x2="3176.38" y2="2664.44"/>
          <line class="cls-13" x1="3191.04" y1="2707.74" x2="3169.18" y2="2692.71"/>
          <line class="cls-13" x1="3131.09" y1="2616.91" x2="3131.09" y2="2710.1"/>
          <line class="cls-13" x1="3108.7" y1="2579.23" x2="3117.34" y2="2592.34"/>
          <line class="cls-13" x1="3138.13" y1="2592.34" x2="3145.81" y2="2577.95"/>
        </g>
      </g>
      <circle class="cls-1" cx="2524.52" cy="1945.68" r="19.49"/>
      <path class="cls-25" d="M2653.4,1727.14c-11.71,42.07-39.88,77.25-77.11,98.2-23.59,13.29-50.81,20.86-79.79,20.86-22.79,0-44.48-4.69-64.16-13.12,11.34-40.74,38.12-75.04,73.66-96.19,24.37-14.53,52.83-22.87,83.24-22.87,22.79,0,44.45,4.69,64.16,13.12Z"/>
      <path class="cls-25" d="M2744.04,1826.08c-24.37,14.5-52.86,22.85-83.27,22.85s-59.85-8.6-84.48-23.59c-32.86-19.97-58.12-51.24-70.29-88.45,24.37-14.53,52.83-22.87,83.24-22.87,22.79,0,44.45,4.69,64.16,13.12,42.73,18.33,76.05,54.38,90.63,98.95Z"/>
      <rect class="cls-25" x="2062.01" y="2121.48" width="81.84" height="199.68" rx="32.97" ry="32.97"/>
      <circle class="cls-2" cx="2101.9" cy="2163.08" r="17.21"/>
      <rect class="cls-18" x="1974.44" y="2066.85" width="51.68" height="96.58" rx="25.84" ry="25.84"/>
      <rect class="cls-18" x="1921.19" y="2131.08" width="51.68" height="96.58" rx="25.84" ry="25.84" transform="translate(4126.4 232.34) rotate(90)"/>
      <rect class="cls-18" x="1921.14" y="2181.94" width="51.68" height="96.58" rx="25.84" ry="25.84" transform="translate(4177.21 283.25) rotate(90)"/>
      <rect class="cls-18" x="1921.69" y="2234.86" width="51.68" height="96.58" rx="25.84" ry="25.84" transform="translate(4230.68 335.62) rotate(90)"/>
      <circle class="cls-14" cx="1970.8" cy="2178.7" r="9.65"/>
      <circle class="cls-14" cx="1969.65" cy="2230.31" r="9.65"/>
      <circle class="cls-14" cx="1971.47" cy="2284.04" r="9.65"/>
      <line class="cls-13" x1="2552.76" y1="2091.69" x2="2734.48" y2="2091.69"/>
      <line class="cls-2" x1="2147.79" y1="2157.79" x2="2147.79" y2="2293.95"/>
      <rect class="cls-8" x="1921.69" y="2234.86" width="51.68" height="96.58" rx="25.84" ry="25.84" transform="translate(4230.68 335.62) rotate(90)"/>
      <rect class="cls-8" x="1921.14" y="2181.94" width="51.68" height="96.58" rx="25.84" ry="25.84" transform="translate(4177.21 283.25) rotate(90)"/>
      <rect class="cls-8" x="1921.19" y="2131.08" width="51.68" height="96.58" rx="25.84" ry="25.84" transform="translate(4126.4 232.34) rotate(90)"/>
    </g>
  </g>
  <g id="_3" data-name="3">
    <g>
      <path class="cls-2" d="M606.77,1941.18c34-8.21,49.24-26.96,56.27-77.37,7.03-50.41,90.27-93.78,152.4-56.27"/>
      <polyline class="cls-15" points="1610.21 2537.88 1531.2 2496.05 1413.56 2496.05"/>
      <line class="cls-15" x1="1570.92" y1="2411.93" x2="1434.87" y2="2411.93"/>
      <polyline class="cls-15" points="1597.1 2268.63 1514.81 2325.8 1415.54 2325.8"/>
      <polyline class="cls-15" points="923.06 2683.73 1057.92 2683.73 1167.68 2573.97"/>
      <line class="cls-15" x1="397.55" y1="2324.62" x2="581.77" y2="2324.62"/>
      <line class="cls-15" x1="383.92" y1="2505.25" x2="490.8" y2="2505.25"/>
      <polyline class="cls-15" points="412.78 2688.77 527.43 2688.77 702.27 2598.53"/>
      <circle class="cls-18" cx="1339.3" cy="1742.65" r="46.03"/>
      <path class="cls-12" d="M723.02,1979.82l-19.61-38.49c-2.97-5.82-10.09-8.14-15.91-5.17l-16.05,8.18c-13.01-17.45-30.53-31.54-51.19-40.36l4.42-27.84c1.02-6.45-3.38-12.52-9.83-13.54l-44.5-7.07c-6.45-1.02-12.52,3.38-13.54,9.83l-4.75,29.93c-18.75,2.85-36.35,9.91-51.66,20.33l-23.29-17.54c-5.22-3.93-12.64-2.89-16.57,2.33l-25.99,34.5c-3.93,5.22-2.89,12.64,2.33,16.57l20.17,15.19c-4.73,10.24-8.18,21.28-10.04,32.97-1.58,9.95-1.91,19.81-1.17,29.44l-20.67,6.46c-6.24,1.95-9.71,8.58-7.77,14.82l13.43,43c1.95,6.24,8.58,9.71,14.82,7.77l24.16-7.55c10.88,14.82,25.01,27.24,41.54,36.15l-5.75,16.96c-2.1,6.19,1.22,12.91,7.41,15l40.91,13.86c6.19,2.1,12.91-1.22,15-7.41l7.97-23.52c58.16-2.72,108.4-45.88,117.9-105.64,1.72-10.84,1.99-21.58.96-32.02l22.08-11.25c5.82-2.97,8.14-10.09,5.17-15.91ZM560.83,2082.86c-35.09-5.57-59.02-38.54-53.44-73.63,5.57-35.09,38.54-59.02,73.63-53.44,35.09,5.57,59.02,38.54,53.44,73.63-5.57,35.09-38.54,59.02-73.63,53.44Z"/>
      <path class="cls-8" d="M1336.04,1718.16c13.6-1.14,25.55,8.96,26.69,22.56,1.14,13.6-8.96,25.55-22.56,26.69"/>
      <circle class="cls-18" cx="1083.96" cy="1843.6" r="46.03"/>
      <polygon class="cls-18" points="1299.7 1907.95 1235.28 1930.1 1221.5 1893.25 1211.86 1867.47 1276.31 1845.34 1287.82 1876.16 1299.7 1907.95"/>
      <path class="cls-23" d="M1287.82,1876.16c-17.52,10.93-38.24,17.26-60.45,17.26-1.96,0-3.91-.06-5.87-.17l-9.64-25.78,64.45-22.13,11.51,30.82Z"/>
      <rect class="cls-1" x="876.26" y="1763.45" width="37.33" height="322.96" rx="17.84" ry="17.84" transform="translate(-992.63 953.66) rotate(-37.84)"/>
      <path class="cls-18" d="M1319.84,1771.68c0,5.67-.4,11.25-1.21,16.69-8.09,55.27-55.67,97.74-113.22,97.74-26.36,0-50.64-8.92-69.97-23.88-27.05-20.95-44.45-53.72-44.45-90.55,0-.83,0-1.64.03-2.47,1.32-62.06,52.05-111.95,114.4-111.95,31.51,0,60.02,12.72,80.68,33.29,20.86,20.72,33.75,49.4,33.75,81.14Z"/>
      <rect class="cls-25" x="1204.18" y="1903.15" width="136.27" height="40.73" rx="20.36" ry="20.36"/>
      <path class="cls-25" d="M1368.64,2026.72h-195.64v-52.99c0-18.87,15.3-34.17,34.17-34.17h127.3c18.87,0,34.17,15.3,34.17,34.17v52.99Z"/>
      <path class="cls-25" d="M1294.89,1746.06l-178.49,71.32-27.73-69.41c-14.92-37.35,3.26-79.73,40.61-94.66l43.23-17.27c37.35-14.92,79.73,3.26,94.66,40.61l27.73,69.41Z"/>
      <path class="cls-13" d="M1457.69,2051.18v515.8c0,25.29-20.51,45.83-45.83,45.83h-812.73c-25.29,0-45.83-20.54-45.83-45.83v-515.8c0-25.32,20.54-45.83,45.83-45.83h812.73c25.32,0,45.83,20.51,45.83,45.83Z"/>
      <line class="cls-13" x1="575.38" y1="2072.37" x2="1437.27" y2="2072.37"/>
      <rect class="cls-21" x="1148.03" y="2330.09" width="78.01" height="129.02" rx="39.01" ry="39.01"/>
      <rect class="cls-21" x="1243.29" y="2330.09" width="78.01" height="129.02" rx="39.01" ry="39.01"/>
      <rect class="cls-21" x="1338.56" y="2330.09" width="78.01" height="129.02" rx="39.01" ry="39.01"/>
      <rect class="cls-21" x="603.06" y="2210.03" width="227.62" height="21.8" rx="10.9" ry="10.9"/>
      <rect class="cls-25" x="602.51" y="2258.74" width="227.62" height="21.8" rx="10.9" ry="10.9"/>
      <rect class="cls-21" x="604.55" y="2307.44" width="227.62" height="21.8" rx="10.9" ry="10.9"/>
      <rect class="cls-21" x="830.37" y="2500.45" width="227.62" height="21.8" rx="10.9" ry="10.9"/>
      <rect class="cls-21" x="832.41" y="2549.16" width="227.62" height="21.8" rx="10.9" ry="10.9"/>
      <rect class="cls-25" x="599.21" y="2136.51" width="634.44" height="37.01" rx="18.51" ry="18.51"/>
      <path class="cls-13" d="M1318.29,1771.75c0,5.59-.4,11.1-1.19,16.46l-180.72,72.86c-26.68-20.66-43.85-52.99-43.85-89.32,0-.82,0-1.62.03-2.44l192.44-77.6c20.58,20.44,33.29,48.73,33.29,80.04Z"/>
      <g>
        <g>
          <path class="cls-19" d="M1153.7,1828.35c-3.41,0-6.8-.86-9.8-2.48-4.22-2.26-7.53-5.98-9.33-10.47-1-2.48-1.51-5.06-1.51-7.68,0-8.47,5.09-15.98,12.97-19.15l25.46-10.2c2.46-.99,5.05-1.49,7.67-1.49,8.47,0,15.99,5.08,19.16,12.95.98,2.44,1.48,5.01,1.48,7.65,0,8.5-5.08,16.03-12.95,19.17l-11.4,4.56-14.06,5.64c-2.47.99-5.06,1.49-7.69,1.49Z"/>
          <path class="cls-23" d="M1179.16,1779.75c7.29,0,13.77,4.38,16.49,11.16.84,2.09,1.27,4.3,1.27,6.57,0,7.32-4.37,13.79-11.14,16.5l-11.41,4.56-14.05,5.64c-2.13.85-4.36,1.29-6.63,1.29-2.93,0-5.85-.74-8.45-2.15-3.62-1.94-6.46-5.14-8.01-9.01-.86-2.13-1.29-4.35-1.29-6.6,0-7.29,4.38-13.75,11.16-16.48l25.46-10.2c2.12-.85,4.35-1.28,6.6-1.28h0M1179.16,1774c-2.91,0-5.87.54-8.74,1.69l-25.46,10.2c-9.19,3.69-14.78,12.51-14.78,21.82,0,2.92.55,5.88,1.71,8.75,2.12,5.3,5.95,9.43,10.63,11.93,3.4,1.84,7.24,2.83,11.17,2.83,2.92,0,5.89-.55,8.76-1.7l14.06-5.64,11.4-4.56c9.16-3.66,14.75-12.51,14.75-21.84,0-2.92-.53-5.86-1.69-8.73-3.69-9.18-12.51-14.76-21.83-14.76h0Z"/>
        </g>
        <path class="cls-23" d="M1177.55,1817.69c0,2.17-.36,4.24-1.04,6.2l-14.06,5.64c-6.75,2.7-14.01,2.07-19.94-1.13-2.07-3.06-3.28-6.75-3.28-10.7,0-10.58,8.58-19.14,19.14-19.14s19.17,8.56,19.17,19.14Z"/>
      </g>
      <g>
        <g>
          <path class="cls-19" d="M1242.16,1792.9c-3.45,0-6.88-.88-9.91-2.54-4.21-2.29-7.5-6.03-9.27-10.53-.98-2.49-1.47-5.07-1.46-7.69.05-8.47,5.19-15.95,13.09-19.07l25.52-10.04c2.43-.96,4.97-1.44,7.56-1.44,8.53,0,16.07,5.13,19.2,13.07.97,2.44,1.45,5.02,1.43,7.66-.05,8.5-5.18,15.99-13.06,19.09l-11.43,4.49-14.09,5.56c-2.44.96-4.99,1.44-7.58,1.44Z"/>
          <path class="cls-23" d="M1267.69,1738.71v5.75c7.34,0,13.83,4.42,16.53,11.26.83,2.09,1.24,4.31,1.23,6.58-.04,7.32-4.46,13.77-11.24,16.43l-11.44,4.49-14.08,5.55c-2.1.83-4.3,1.25-6.53,1.25-2.97,0-5.92-.76-8.55-2.2-3.61-1.96-6.43-5.17-7.96-9.06-.85-2.13-1.27-4.36-1.25-6.61.04-7.29,4.47-13.73,11.26-16.41l25.52-10.04c2.09-.82,4.28-1.24,6.51-1.24v-5.75M1267.69,1738.71c-2.87,0-5.78.53-8.61,1.64l-25.52,10.04c-9.21,3.63-14.85,12.42-14.91,21.73-.02,2.92.52,5.89,1.66,8.76,2.09,5.32,5.9,9.46,10.56,12,3.43,1.88,7.32,2.9,11.3,2.9,2.87,0,5.8-.53,8.63-1.64l14.09-5.56,11.43-4.49c9.18-3.61,14.83-12.42,14.89-21.75.02-2.92-.5-5.86-1.63-8.74-3.66-9.25-12.51-14.89-21.88-14.89h0Z"/>
        </g>
        <path class="cls-23" d="M1265.96,1782.39c-.01,2.17-.39,4.24-1.07,6.19l-14.09,5.56c-6.77,2.66-14.02,1.99-19.93-1.25-2.05-3.07-3.24-6.77-3.21-10.72.06-10.58,8.7-19.09,19.26-19.03,10.58.06,19.11,8.67,19.05,19.26Z"/>
      </g>
      <path class="cls-8" d="M1098.75,1864.35c-11.1,7.94-26.53,5.39-34.48-5.71-7.94-11.1-5.39-26.53,5.71-34.48"/>
      <rect class="cls-25" x="1050.56" y="1704.96" width="261.39" height="41.91" rx="20.95" ry="20.95" transform="translate(-540.61 538.76) rotate(-21.03)"/>
      <g>
        <circle class="cls-13" cx="1285.48" cy="2042.67" r="10.19"/>
        <circle class="cls-27" cx="1343.09" cy="2042.51" r="11.69"/>
        <g>
          <line class="cls-9" x1="1390.89" y1="2033.61" x2="1409.69" y2="2051.72"/>
          <line class="cls-9" x1="1390.51" y1="2051.36" x2="1410.36" y2="2033.21"/>
        </g>
      </g>
      <rect class="cls-18" x="839.3" y="1838.55" width="51.68" height="96.58" rx="25.84" ry="25.84" transform="translate(1790 28.55) rotate(51.09)"/>
      <rect class="cls-18" x="804.81" y="1797.71" width="51.68" height="96.58" rx="25.84" ry="25.84" transform="translate(1745.39 40.19) rotate(51.09)"/>
      <circle class="cls-14" cx="883.21" cy="1871.39" r="9.65"/>
      <circle class="cls-14" cx="848.63" cy="1831.73" r="9.65"/>
      <rect class="cls-18" x="873.32" y="1878.99" width="51.68" height="96.58" rx="25.84" ry="25.84" transform="translate(1834.11 17.11) rotate(51.09)"/>
      <path class="cls-22" d="M833.7,2349.86h-104.51c-3.73-3.6-8.18-6.47-13.13-8.33v-24.33c0-18.97-15.38-34.36-34.36-34.36h-13.42c-18.97,0-34.36,15.38-34.36,34.36v24.33c-4.95,1.86-9.4,4.73-13.13,8.33h-67.51v217.12c0,25.29,20.54,45.83,45.83,45.83h238.47c19.1-1.93,34.04-18.1,34.04-37.72v-187.28c0-20.98-16.98-37.95-37.92-37.95Z"/>
      <circle class="cls-14" cx="917.23" cy="1911.82" r="9.65"/>
      <rect class="cls-13" x="467.98" y="2363.27" width="442.83" height="263.16" rx="37.94" ry="37.94"/>
      <rect class="cls-13" x="523.86" y="2496.96" width="331.07" height="73.8" rx="18.83" ry="18.83"/>
      <circle class="cls-9" cx="572.21" cy="2534.13" r="13.79"/>
      <circle class="cls-9" cx="652.22" cy="2534.13" r="13.79"/>
      <circle class="cls-9" cx="732.24" cy="2534.13" r="13.79"/>
      <circle class="cls-9" cx="812.26" cy="2534.13" r="13.79"/>
      <g>
        <path class="cls-13" d="M685.55,2297.23h13.42c18.96,0,34.36,15.39,34.36,34.36v39.28h-82.13v-39.28c0-18.96,15.39-34.36,34.36-34.36Z"/>
        <path class="cls-13" d="M692.25,2321.4h0c10.73,0,19.43,8.71,19.43,19.43v19.79h-38.87v-19.79c0-10.73,8.71-19.43,19.43-19.43Z"/>
        <rect class="cls-13" x="626.36" y="2353.45" width="131.78" height="105.93" rx="38.25" ry="38.25"/>
        <path class="cls-13" d="M709.44,2392.53c0-10.16-8.81-18.26-19.21-17.07-7.68.87-14.01,7.09-15.02,14.75-1.02,7.79,3.18,14.7,9.58,17.79v18.76c0,2.47,2,4.47,4.47,4.47h5.97c2.47,0,4.47-2,4.47-4.47v-18.76c5.75-2.78,9.73-8.65,9.73-15.47Z"/>
      </g>
      <circle class="cls-13" cx="397.55" cy="2324.62" r="21.34"/>
      <circle class="cls-13" cx="923.06" cy="2683.73" r="21.34"/>
      <circle class="cls-13" cx="1597.1" cy="2268.63" r="21.34"/>
      <circle class="cls-13" cx="1570.92" cy="2411.93" r="21.34"/>
      <circle class="cls-13" cx="1610.21" cy="2537.88" r="21.34"/>
      <circle class="cls-13" cx="383.92" cy="2505.25" r="21.34"/>
      <path class="cls-22" d="M1457.69,2087.83v180.29h-319.72c-22.21,0-40.22-18.01-40.22-40.25v-99.78c0-22.24,18.01-40.25,40.22-40.25h319.72Z"/>
      <circle class="cls-13" cx="412.78" cy="2688.77" r="21.34"/>
      <rect class="cls-13" x="1120.19" y="2107.96" width="399.87" height="180.29" rx="40.24" ry="40.24"/>
      <path class="cls-22" d="M1076.66,2327.16c-.13-1.57-2.17-2.15-3.09-.86-5.5,7.7-19.28,24.36-38.63,29.73-1.62.45-1.62,2.76,0,3.26l14.58,4.49c2.59.8,4.11,3.47,3.44,6.1-2.81,11.12-13.89,37.82-55.48,37.05-48.43-.9-49.7-86.16-50.37-125.32,22.13-4.55,38.77-24.14,38.77-47.61,0-26.85-21.76-48.61-48.61-48.61s-48.61,21.76-48.61,48.61c0,20.11,12.22,37.37,29.63,44.76-3.45,59.35-.45,161.71,77.24,163.17,73.19,1.37,86.89-46.35,81.13-114.75ZM937.26,2207.59c14.57,0,26.39,11.81,26.39,26.39s-11.81,26.39-26.39,26.39-26.39-11.81-26.39-26.39,11.81-26.39,26.39-26.39Z"/>
      <g>
        <rect class="cls-13" x="1315.03" y="2152.51" width="166.76" height="18.53" rx="9.26" ry="9.26"/>
        <rect class="cls-13" x="1315.03" y="2193.77" width="166.76" height="18.53" rx="9.26" ry="9.26"/>
        <rect class="cls-13" x="1315.03" y="2235.09" width="166.76" height="18.53" rx="9.26" ry="9.26"/>
      </g>
      <path class="cls-24" d="M1093.92,2335.79c-.13-1.57-2.17-2.15-3.09-.86-5.5,7.7-19.28,24.36-38.63,29.73-1.62.45-1.62,2.76,0,3.26l14.58,4.49c2.59.8,4.11,3.47,3.44,6.1-2.81,11.12-13.89,37.82-55.48,37.05-48.43-.9-49.7-86.16-50.37-125.32,22.13-4.55,38.77-24.14,38.77-47.61,0-26.85-21.76-48.61-48.61-48.61s-48.61,21.76-48.61,48.61c0,20.11,12.22,37.37,29.63,44.76-3.45,59.35-.45,161.71,77.24,163.17,73.19,1.37,86.89-46.35,81.13-114.75ZM954.52,2216.22c14.57,0,26.39,11.81,26.39,26.39s-11.81,26.39-26.39,26.39-26.39-11.81-26.39-26.39,11.81-26.39,26.39-26.39Z"/>
      <path class="cls-22" d="M1457.69,2419.23v147.75c0,25.29-20.51,45.83-45.83,45.83h-324.78v-180.63c0-14.47,11.74-26.18,26.18-26.18h321.67c9.75,0,18.24,5.32,22.76,13.24Z"/>
      <path class="cls-2" d="M726.53,1981.58c21.84-17.56,45.67-24.32,66.31-18.58,32.81,9.13,52.31,47.12,43.5,117.6-8.81,70.49,12.7,139.27,71.07,145.88"/>
      <path class="cls-2" d="M551.67,2253.01c-65.65,19.93-151.23,24.62-174.67-46.89-18.45-56.28,1.58-111.83,37.81-151.23"/>
      <g>
        <rect class="cls-13" x="1110.1" y="2434.77" width="374.02" height="259.53" rx="26.19" ry="26.19"/>
        <path class="cls-13" d="M1117.79,2685.83l132.16-128.93c26.29-25.64,63.57-25.94,90.12-.71l136.48,129.65"/>
        <path class="cls-13" d="M1117.79,2443.83l132.16,142.46c26.29,28.33,63.57,28.66,90.12.79l136.48-143.24"/>
      </g>
      <rect class="cls-8" x="873.32" y="1878.99" width="51.68" height="96.58" rx="25.84" ry="25.84" transform="translate(1834.11 17.11) rotate(51.09)"/>
      <rect class="cls-8" x="839.3" y="1838.55" width="51.68" height="96.58" rx="25.84" ry="25.84" transform="translate(1790 28.55) rotate(51.09)"/>
      <rect class="cls-8" x="804.81" y="1797.71" width="51.68" height="96.58" rx="25.84" ry="25.84" transform="translate(1745.39 40.19) rotate(51.09)"/>
      <g>
        <path class="cls-13" d="M1283.82,2203.07c0,23.28-12.6,43.59-31.36,54.52-3.39,1.96-7.02,3.63-10.79,4.95-1.76.6-3.54,1.15-5.35,1.61-4.98,1.27-10.19,1.93-15.54,1.93s-10.53-.66-15.51-1.93c-1.81-.46-3.6-1.01-5.35-1.61-3.77-1.32-7.37-2.99-10.79-4.95-18.76-10.93-31.36-31.25-31.36-54.52,0-34.79,28.23-63.01,63.01-63.01s63.04,28.23,63.04,63.01Z"/>
        <circle class="cls-18" cx="1220.79" cy="2197.97" r="20.83"/>
        <path class="cls-18" d="M1252.83,2252.64c0,1.7-.14,3.34-.37,4.95-3.39,1.96-7.02,3.63-10.79,4.95-1.76.6-3.54,1.15-5.35,1.61-4.98,1.27-10.19,1.93-15.54,1.93s-10.53-.66-15.51-1.93c-1.81-.46-3.6-1.01-5.35-1.61-3.77-1.32-7.37-2.99-10.79-4.95-.23-1.61-.37-3.25-.37-4.95,0-17.69,14.36-32.02,32.05-32.02s32.02,14.33,32.02,32.02Z"/>
      </g>
      <g>
        <circle class="cls-18" cx="1220.79" cy="2197.97" r="20.83"/>
        <path class="cls-18" d="M1252.83,2252.64c0,1.7-.14,3.34-.37,4.95-3.39,1.96-7.02,3.63-10.79,4.95-1.76.6-3.54,1.15-5.35,1.61-4.98,1.27-10.19,1.93-15.54,1.93s-10.53-.66-15.51-1.93c-1.81-.46-3.6-1.01-5.35-1.61-3.77-1.32-7.37-2.99-10.79-4.95-.23-1.61-.37-3.25-.37-4.95,0-17.69,14.36-32.02,32.05-32.02s32.02,14.33,32.02,32.02Z"/>
      </g>
      <path class="cls-15" d="M1283.82,2203.07c0,23.28-12.6,43.59-31.36,54.52-3.39,1.96-7.02,3.63-10.79,4.95-1.76.6-3.54,1.15-5.35,1.61-4.98,1.27-10.19,1.93-15.54,1.93s-10.53-.66-15.51-1.93c-1.81-.46-3.6-1.01-5.35-1.61-3.77-1.32-7.37-2.99-10.79-4.95-18.76-10.93-31.36-31.25-31.36-54.52,0-34.79,28.23-63.01,63.01-63.01s63.04,28.23,63.04,63.01Z"/>
    </g>
  </g>
  <g id="_2" data-name="2">
    <g>
      <polyline class="cls-10" points="2095.83 1228.16 2095.83 1364.31 2329.92 1364.31 2329.92 1230.55"/>
      <polyline class="cls-10" points="3199.38 750.44 3486.02 750.44 3486.02 1120.67 3390.47 1120.67"/>
      <polyline class="cls-10" points="2620.54 478.78 2790.26 478.78 2790.26 609.51"/>
      <line class="cls-15" x1="3350.73" y1="622.52" x2="3190.62" y2="622.52"/>
      <polyline class="cls-15" points="3524.9 465.24 3445.18 531.99 3191.77 531.99"/>
      <line class="cls-15" x1="3392.06" y1="439.27" x2="3195.23" y2="439.27"/>
      <line class="cls-15" x1="2245.59" y1="348.77" x2="2245.59" y2="459.53"/>
      <line class="cls-15" x1="2127.97" y1="297.9" x2="2127.97" y2="463.8"/>
      <polyline class="cls-15" points="1999.83 299.92 2054.84 355.71 2054.84 465.22"/>
      <path class="cls-25" d="M1904.44,1166.46v-87.97h355.8v152.98h-290.79c-35.9,0-65.01-29.1-65.01-65.01Z"/>
      <rect class="cls-13" x="2886.05" y="373.67" width="352.74" height="464.44" rx="27.08" ry="27.08"/>
      <rect class="cls-1" x="2911.86" y="399.62" width="301.11" height="417.36" rx="27.08" ry="27.08"/>
      <polygon class="cls-13" points="2776.34 1385.09 2544.98 1385.09 2573.75 1255.97 2747.56 1255.97 2776.34 1385.09"/>
      <path class="cls-13" d="M3112.61,673.29v518.33c0,5.38-.37,10.67-1.15,15.85-7.68,53.29-53.52,94.23-108.93,94.23h-683.72c-60.82,0-110.11-49.29-110.11-110.08v-518.33c0-60.82,49.29-110.11,110.11-110.11h683.72c60.8,0,110.08,49.29,110.08,110.11Z"/>
      <rect class="cls-1" x="2263.72" y="619.83" width="797.24" height="539.73" rx="70.4" ry="70.4"/>
      <circle class="cls-13" cx="3392.06" cy="439.27" r="21.34"/>
      <circle class="cls-13" cx="3524.9" cy="465.24" r="21.34"/>
      <circle class="cls-13" cx="3350.73" cy="622.52" r="21.34"/>
      <circle class="cls-13" cx="1999.83" cy="299.92" r="21.34"/>
      <circle class="cls-13" cx="2127.97" cy="297.9" r="21.34"/>
      <path class="cls-22" d="M2468.33,1019.03h-95.52v-34.68c0-11.45,8.7-20.72,19.43-20.72h22.07c10.73,0,19.43,9.28,19.43,20.72v5.44c0,4.97,4.03,9,9,9h15.91c4.97,0,9-4.03,9-9v-29.93c0-20.24-15.38-36.64-34.36-36.64h-60.05c-18.97,0-34.36,16.4-34.36,36.64v59.17h-.67c-21.13,0-38.25,17.13-38.25,38.25v89.58c0,21.13,17.13,38.25,38.25,38.25h130.11c21.13,0,38.25-17.13,38.25-38.25v-89.58c0-21.13-17.13-38.25-38.25-38.25Z"/>
      <circle class="cls-13" cx="2245.59" cy="348.77" r="21.34"/>
      <rect class="cls-13" x="2033.59" y="438.33" width="623.18" height="554.59" rx="32.2" ry="32.2"/>
      <g>
        <circle class="cls-13" cx="2360.59" cy="446.62" r="19.94"/>
        <circle class="cls-27" cx="2473.31" cy="446.31" r="22.87"/>
        <g>
          <line class="cls-9" x1="2566.82" y1="428.9" x2="2603.61" y2="464.33"/>
          <line class="cls-9" x1="2566.08" y1="463.61" x2="2604.91" y2="428.1"/>
        </g>
      </g>
      <rect class="cls-18" x="1915.77" y="712.34" width="139.02" height="112.15"/>
      <rect class="cls-21" x="2085.04" y="601.06" width="221.04" height="32.72" rx="16.36" ry="16.36"/>
      <rect class="cls-21" x="2084.49" y="781.79" width="242.12" height="32.72" rx="16.36" ry="16.36"/>
      <rect class="cls-21" x="2084.49" y="848.99" width="242.12" height="32.72" rx="16.36" ry="16.36"/>
      <rect class="cls-21" x="2084.49" y="916.19" width="242.12" height="32.72" rx="16.36" ry="16.36"/>
      <path class="cls-22" d="M3112.61,761.73v429.89c0,5.38-.37,10.67-1.15,15.85h-382.79c-16.86,0-30.53-13.67-30.53-30.53v-384.66c0-16.89,13.67-30.56,30.53-30.56h383.94Z"/>
      <rect class="cls-13" x="2390.3" y="1363.57" width="540.72" height="51.11" rx="25.56" ry="25.56"/>
      <path class="cls-13" d="M3387.73,826.61v384.66c0,6.88-2.27,13.21-6.1,18.33v.03c-5.64,7.37-14.47,12.17-24.46,12.17h-592.13c-16.86,0-30.53-13.67-30.53-30.53v-384.66c0-16.89,13.67-30.56,30.53-30.56h592.13c16.86,0,30.56,13.67,30.56,30.56Z"/>
      <rect class="cls-21" x="2085.04" y="530.84" width="221.04" height="32.72" rx="16.36" ry="16.36"/>
      <circle class="cls-1" cx="3162.14" cy="624.13" r="20.87"/>
      <rect class="cls-25" x="1865.55" y="811.7" width="230.36" height="108.41" rx="38.89" ry="38.89"/>
      <rect class="cls-18" x="2052.76" y="654.69" width="57.49" height="157.32" rx="28.74" ry="28.74" transform="translate(2814.85 -1348.15) rotate(90)"/>
      <path class="cls-22" d="M2388.9,485.2c-87.44,0-158.91,68.36-163.89,154.54h-191.42v53h196.95c19.02,69.66,82.69,120.84,158.36,120.84,90.69,0,164.2-73.51,164.2-164.17s-73.51-164.2-164.2-164.2ZM2452.75,733.16c-17.72,13.52-39.85,21.55-63.85,21.55s-45.95-7.97-63.64-21.38c-25.32-19.25-41.69-49.69-41.69-83.93,0-58.18,47.16-105.34,105.34-105.34s105.34,47.16,105.34,105.34c0,34.15-16.28,64.51-41.49,83.76Z"/>
      <circle class="cls-2" cx="2033.24" cy="862.31" r="17.64"/>
      <rect class="cls-24" x="1888.13" y="662.76" width="396.1" height="53" rx="15.75" ry="15.75"/>
      <path class="cls-25" d="M2057.42,1231.47h-88.44c-35.65,0-64.54-28.9-64.54-64.54v-246.83h152.98v311.37Z"/>
      <rect class="cls-18" x="1946.87" y="615.81" width="57.49" height="124.01" rx="28.74" ry="28.74"/>
      <rect class="cls-18" x="2004.06" y="616.57" width="57.49" height="124.01" rx="28.74" ry="28.74"/>
      <rect class="cls-18" x="2062.03" y="615.47" width="57.49" height="124.01" rx="28.74" ry="28.74"/>
      <circle class="cls-14" cx="2091.34" cy="709.19" r="11.76"/>
      <circle class="cls-14" cx="2033.1" cy="709.79" r="11.76"/>
      <circle class="cls-14" cx="1974.46" cy="709.07" r="11.76"/>
      <path class="cls-16" d="M2517.26,672.42c0,34.15-16.28,64.51-41.49,83.76-17.72,13.52-39.85,21.55-63.85,21.55s-45.95-7.97-63.64-21.38c-25.32-19.25-41.69-49.69-41.69-83.93,0-58.18,47.16-105.34,105.34-105.34s105.34,47.16,105.34,105.34Z"/>
      <path class="cls-18" d="M2475.77,756.18c-17.72,13.52-39.85,21.55-63.85,21.55s-45.95-7.97-63.64-21.38c2.42-33.12,30.04-59.24,63.76-59.24s61.26,26.04,63.73,59.07Z"/>
      <circle class="cls-18" cx="2412.14" cy="662.09" r="46.43"/>
      <g>
        <circle class="cls-13" cx="3202.09" cy="841.1" r="11.83"/>
        <circle class="cls-27" cx="3268.96" cy="840.92" r="13.57"/>
        <g>
          <line class="cls-9" x1="3324.43" y1="830.59" x2="3346.26" y2="851.61"/>
          <line class="cls-9" x1="3323.99" y1="851.18" x2="3347.02" y2="830.12"/>
        </g>
      </g>
      <line class="cls-13" x1="2753.66" y1="879.23" x2="3365.45" y2="879.23"/>
      <rect class="cls-15" x="2396.94" y="853.08" width="204.09" height="78.67" rx="13.95" ry="13.95"/>
      <circle class="cls-1" cx="2438.2" cy="893.91" r="13.23"/>
      <circle class="cls-1" cx="2499.59" cy="893.91" r="13.23"/>
      <circle class="cls-1" cx="2560.97" cy="893.91" r="13.23"/>
      <g>
        <path class="cls-13" d="M2435.27,1057.98h-33.69v-44.85c0-11.45,8.7-20.72,19.43-20.72h22.07c10.73,0,19.43,9.28,19.43,20.72v5.44c0,4.97,4.03,9,9,9h15.91c4.97,0,9-4.03,9-9v-29.93c0-20.24-15.38-36.64-34.36-36.64h-60.05c-18.97,0-34.36,16.4-34.36,36.64v86.48h67.61v-17.13Z"/>
        <rect class="cls-13" x="2328.74" y="1047.81" width="206.61" height="166.08" rx="38.25" ry="38.25"/>
        <path class="cls-25" d="M2459,1109.07c0-15.93-13.81-28.63-30.11-26.77-12.04,1.37-21.97,11.11-23.55,23.13-1.6,12.21,4.99,23.05,15.02,27.9v29.42c0,3.87,3.14,7.01,7.01,7.01h9.37c3.87,0,7.01-3.14,7.01-7.01v-29.42c9.02-4.36,15.26-13.57,15.26-24.25Z"/>
      </g>
      <polyline class="cls-25" points="2438.06 1082.74 2570.28 1082.74 2570.28 1131.36 2443.74 1131.36"/>
      <path class="cls-25" d="M2609.69,1027.45c-43.01,0-77.88,34.87-77.88,77.88s34.87,77.88,77.88,77.88,77.88-34.87,77.88-77.88-34.87-77.88-77.88-77.88ZM2609.69,1141.62c-20.04,0-36.29-16.25-36.29-36.29s16.25-36.29,36.29-36.29,36.29,16.25,36.29,36.29-16.25,36.29-36.29,36.29Z"/>
      <path class="cls-18" d="M2927.67,1233.31c0,2.88-.17,5.7-.52,8.49h-141.39c-.35-2.79-.52-5.61-.52-8.49,0-39.3,31.88-71.21,71.21-71.21s71.21,31.91,71.21,71.21Z"/>
      <rect class="cls-21" x="2783.81" y="931.45" width="385.21" height="32.72" rx="16.36" ry="16.36"/>
      <rect class="cls-21" x="2965.43" y="1006.17" width="385.21" height="32.72" rx="16.36" ry="16.36"/>
      <path class="cls-18" d="M3382.79,1216.85c0,4.34-.4,8.6-1.15,12.75v.03c-5.64,7.37-14.47,12.17-24.46,12.17h-112.33c-2.91-7.77-4.49-16.17-4.49-24.95,0-39.33,31.88-71.21,71.21-71.21s71.21,31.88,71.21,71.21Z"/>
      <path class="cls-18" d="M3275.64,1217.51c0,8.23-.49,16.31-1.5,24.28h-391.25c-1.01-7.97-1.5-16.06-1.5-24.28,0-108.87,88.25-197.12,197.12-197.12s197.12,88.24,197.12,197.12Z"/>
      <path class="cls-24" d="M3229.52,1116.27l-315.98-1.24s-.2-6.62.2-17.18c.29-7.88.92-17.93,2.24-29.03,5.27-44.48,21.46-105.8,70.58-111.15,46.06-5.04,36.14,49.66,71.76,46.55,35.62-3.08,16.11-52.68,60.42-55.39,46.7-2.82,84.1,55.7,101.34,106.6,3.8,11.34,6.65,22.3,8.34,32.11,1.99,11.6,2.42,21.58,1.09,28.71Z"/>
      <rect class="cls-24" x="2844.29" y="1093.9" width="467.13" height="44.91" rx="19.8" ry="19.8" transform="translate(-43.81 129.12) rotate(-2.39)"/>
      <path class="cls-13" d="M3228.42,1087.55l-314.68,10.3c.29-7.88.92-17.93,2.24-29.03l1.29-1.32,301.51-13.93,1.29,1.87c3.8,11.34,6.65,22.3,8.34,32.11Z"/>
      <g>
        <g>
          <path class="cls-19" d="M2971.68,1242.06c-15.87,0-29.26-11.33-31.82-26.94-.28-1.54-.42-3.16-.45-4.99l-.06-3.31c-.09-8.59,3.18-16.73,9.21-22.89,6.03-6.16,14.09-9.6,22.7-9.69l36.74-.4,9.84-.12c17.6,0,32.07,14.32,32.26,31.91l.03,3.3c.1,8.61-3.16,16.75-9.18,22.9-6.03,6.17-14.1,9.61-22.73,9.7l-46.53.52Z"/>
          <path class="cls-23" d="M3017.84,1170.85v5.75c16.03,0,29.21,13.04,29.38,29.05l.03,3.33c.09,7.84-2.88,15.24-8.36,20.85-5.49,5.62-12.84,8.75-20.71,8.84l-46.2.52h-.3c-14.46,0-26.65-10.31-28.98-24.53,0-.03,0-.06-.01-.09-.24-1.34-.37-2.81-.4-4.49l-.06-3.27c-.08-7.84,2.9-15.25,8.39-20.86,5.49-5.61,12.83-8.75,20.68-8.83l36.75-.4,9.48-.11h.31s0-5.76,0-5.76M3017.84,1170.85c-.12,0-.25,0-.37,0l-9.5.12-36.74.4c-19.39.2-34.96,16.11-34.76,35.5l.06,3.31c.03,1.84.17,3.65.49,5.41,2.74,16.69,17.27,29.35,34.66,29.35.12,0,.24,0,.35,0l46.21-.52c19.42-.2,34.99-16.11,34.76-35.5l-.03-3.31c-.2-19.27-15.91-34.76-35.13-34.76h0Z"/>
        </g>
        <path class="cls-23" d="M3008.4,1177.26c0,25.38-20.6,45.98-45.98,45.98-9.41,0-18.13-2.82-25.41-7.65-.32-1.76-.46-3.57-.49-5.41l-.06-3.31c-.2-19.39,15.36-35.3,34.76-35.5l36.74-.4c.29,2.04.43,4.17.43,6.3Z"/>
      </g>
      <g>
        <g>
          <path class="cls-19" d="M3122,1238.69c-15.87,0-29.26-11.33-31.82-26.94-.28-1.54-.42-3.16-.45-4.99l-.06-3.31c-.09-8.59,3.18-16.73,9.21-22.89,6.03-6.16,14.09-9.6,22.7-9.69l36.74-.4,9.84-.12c17.6,0,32.07,14.32,32.26,31.91l.03,3.3c.1,8.61-3.16,16.74-9.18,22.9-6.03,6.17-14.1,9.61-22.73,9.7l-46.53.52Z"/>
          <path class="cls-23" d="M3168.16,1167.48v5.75c16.03,0,29.21,13.04,29.38,29.05l.03,3.33c.09,7.84-2.88,15.24-8.36,20.85-5.49,5.62-12.84,8.75-20.71,8.83l-46.2.52h-.3c-14.46,0-26.65-10.31-28.98-24.53,0-.03,0-.06-.01-.09-.24-1.34-.37-2.81-.4-4.49l-.06-3.27c-.08-7.84,2.9-15.25,8.39-20.86,5.49-5.61,12.83-8.75,20.68-8.83l36.75-.4,9.48-.11h.31s0-5.76,0-5.76M3168.16,1167.48c-.12,0-.25,0-.37,0l-9.5.12-36.74.4c-19.39.2-34.96,16.11-34.76,35.5l.06,3.31c.03,1.84.17,3.65.49,5.41,2.74,16.69,17.27,29.35,34.66,29.35.12,0,.24,0,.35,0l46.21-.52c19.42-.2,34.99-16.11,34.76-35.5l-.03-3.31c-.2-19.27-15.91-34.76-35.13-34.76h0Z"/>
        </g>
        <path class="cls-23" d="M3158.73,1173.9c0,25.38-20.6,45.98-45.98,45.98-9.41,0-18.13-2.82-25.41-7.65-.32-1.76-.46-3.57-.49-5.41l-.06-3.31c-.2-19.39,15.36-35.3,34.76-35.5l36.74-.4c.29,2.04.43,4.17.43,6.3Z"/>
      </g>
      <line class="cls-13" x1="2064.48" y1="493.84" x2="2624.73" y2="493.84"/>
      <line class="cls-2" x1="1908.39" y1="925.08" x2="2053.16" y2="925.08"/>
      <line class="cls-6" x1="3065.01" y1="1240.69" x2="3070.59" y2="1196.02"/>
      <path class="cls-6" d="M3310.16,1182.59c19.94,0,36.11,16.14,36.11,36.08,0,8.8-3.14,16.86-8.4,23.13"/>
      <path class="cls-6" d="M2821.06,1241.8c-.17-1.38-.26-2.79-.26-4.23,0-19.94,16.17-36.08,36.11-36.08"/>
      <path class="cls-24" d="M2411.92,508.21c-90.69,0-164.2,73.52-164.2,164.2s73.51,164.2,164.2,164.2,164.2-73.51,164.2-164.2-73.52-164.2-164.2-164.2ZM2475.77,756.18c-17.72,13.52-39.85,21.55-63.85,21.55s-45.95-7.97-63.64-21.38c-25.32-19.25-41.69-49.69-41.69-83.93,0-58.18,47.16-105.34,105.34-105.34s105.34,47.16,105.34,105.34c0,34.15-16.28,64.51-41.49,83.76Z"/>
      <rect class="cls-6" x="2062.03" y="615.47" width="57.49" height="124.01" rx="28.74" ry="28.74"/>
      <rect class="cls-6" x="2004.06" y="616.57" width="57.49" height="124.01" rx="28.74" ry="28.74"/>
      <rect class="cls-6" x="1946.87" y="615.81" width="57.49" height="124.01" rx="28.74" ry="28.74"/>
    </g>
  </g>
  <g id="_1" data-name="1">
    <g>
      <polyline class="cls-10" points="323.4 758.28 323.4 868.1 600.97 868.1"/>
      <circle class="cls-13" cx="323.4" cy="728.14" r="51.23"/>
      <line class="cls-15" x1="1179.87" y1="1264.64" x2="959.07" y2="1264.64"/>
      <line class="cls-15" x1="1451.66" y1="1173.56" x2="1054.31" y2="1173.56"/>
      <polyline class="cls-15" points="1574.17 1135 1501.55 1075.95 1216.81 1075.95"/>
      <line class="cls-15" x1="1514.71" y1="987.53" x2="1209.74" y2="987.53"/>
      <line class="cls-15" x1="1618.71" y1="701.64" x2="1185.81" y2="701.64"/>
      <polyline class="cls-15" points="1213.03 621.37 1491.57 621.37 1562.87 544.41"/>
      <path class="cls-18" d="M1370.78,669.05s5.79-92.7,32.45-93.86,48.67,112.4,48.67,112.4l-81.11-18.54Z"/>
      <path class="cls-18" d="M1455.25,838.26l-13.52-4.19c-14.14-4.38-28.35,6.53-27.77,21.31,1.48,37.72,2.3,100.52-6.67,128.81-12.99,40.97-45.55,120.33-51.69,247.79-.26,5.34-2.53,10.39-6.32,14.17l-6.43,6.43c-6.6,6.6-16.71,8.17-25,3.89l-8.53-4.4c-5.81-3-9.93-8.46-11.2-14.87-3.03-15.3-8.98-54.51-14.25-82.29-4.95-26.13-28.01-44.88-54.6-44.42l-20.99.36c-12.14.21-22.03-9.69-21.81-21.83l4.12-231.39c.2-11.01,8.69-20.08,19.66-20.99l29.67-2.47c17.35,1.02,96.95-45.92,90.83-119.4-6.12-73.48-24.49-113.28-8.16-124.5,16.33-11.23,70.42,54.09,123.48,81.64,53.07,27.55,139.81,75.52,140.83,91.85,1.02,16.33-9.18,77.56-28.57,86.74-19.39,9.18-103.07-12.25-103.07-12.25"/>
      <path class="cls-1" d="M1136.91,517.81l-19.46-41.83c-2.46-5.29-8.75-7.59-14.05-5.13l-24.18,11.25c-10.05-16.49-23.04-31.01-38.28-42.84l10.6-23.06c2.44-5.31.11-11.58-5.19-14.02l-41.92-19.26c-5.31-2.44-11.58-.11-14.02,5.19l-10.2,22.19c-9.79-2.28-19.92-3.69-30.34-4.07-12.47-.45-24.64.6-36.37,2.91l-9.48-23.57c-2.18-5.42-8.34-8.04-13.76-5.86l-42.8,17.22c-5.42,2.18-8.04,8.34-5.86,13.76l10.17,25.28c-13.53,9.76-25.5,21.58-35.37,35.08l-21.4-10.42c-5.25-2.56-11.58-.37-14.13,4.88l-20.19,41.48c-2.56,5.25-.37,11.58,4.88,14.13l23.68,11.52c-1.7,8.39-2.78,17.02-3.1,25.86-3.17,87.26,65.01,160.57,152.27,163.73,87.26,3.17,160.57-65.01,163.73-152.27.29-8.1-.03-16.07-.93-23.89l30.56-14.22c5.29-2.46,7.59-8.75,5.13-14.05ZM940.1,675.9c-61.67-2.24-109.85-54.05-107.62-115.72,2.24-61.67,54.05-109.85,115.72-107.62,61.67,2.24,109.85,54.05,107.62,115.72-2.24,61.67-54.05,109.85-115.72,107.61Z"/>
      <path class="cls-1" d="M739.18,1109.69c-11.3-78.51-84.1-133-162.61-121.7-23.26,3.35-44.39,12.13-62.34,24.82l-22.72-29.25c5.74-12.33,4.57-27.34-4.34-38.82-12.7-16.35-36.24-19.3-52.58-6.61-16.35,12.69-19.3,36.24-6.61,52.58,8.91,11.48,23.17,16.32,36.53,13.82l24.28,31.26c-19.58,22.48-32.1,50.91-34.81,81.6l-47.66-1.54c-5.82-12.29-18.12-20.98-32.64-21.45-20.69-.67-38,15.56-38.67,36.24-.67,20.69,15.56,38,36.24,38.67,14.52.47,27.36-7.41,33.96-19.29l49.83,1.61c5.29,35,22.84,65.15,47.63,86.74l-26.77,45.77c-13.58-.74-27.08,5.93-34.42,18.47-10.45,17.86-4.44,40.82,13.42,51.27,17.86,10.45,40.82,4.44,51.27-13.42,7.34-12.54,6.53-27.58-.77-39.05l25.59-43.75c25.7,13.33,55.63,19.08,86.47,14.64,5.01-.72,9.92-1.7,14.72-2.91l20.12,47.63c-8.72,10.43-11.46,25.24-5.81,38.63,8.05,19.07,30.04,27.99,49.1,19.94,19.07-8.05,27.99-30.04,19.94-49.1-5.65-13.39-18.18-21.74-31.74-22.77l-19.68-46.58c52.14-27.56,83.93-85.73,75.04-147.45Z"/>
      <path class="cls-25" d="M570.12,549.81l-86.5,57.26-14.24-21.51c-7.65-11.56-4.48-27.13,7.07-34.78l44.65-29.56c11.56-7.65,27.13-4.48,34.78,7.07l14.24,21.51Z"/>
      <circle class="cls-21" cx="596.34" cy="1131.8" r="92.15"/>
      <circle class="cls-25" cx="605.17" cy="687.89" r="153.65"/>
      <path class="cls-13" d="M1236.25,673.03v364.25c0,28.06-10.97,55.04-30.59,75.08l-144.01,147.33-1.05,1.09-.24.24-51.27,56-.96,1.05-56.15,61.31c-30.32,33.12-82.5,33.12-112.82,0l-108.36-118.36-145.31-148.66c-19.62-20.04-30.62-47.02-30.62-75.08v-363.5c0-50.52,35.2-94.31,84.61-104.95,64.92-13.96,160.47-29.66,262.56-29.9,80.99-.21,158.81,10.85,218.97,22.73,10.97,2.17,21.37,4.34,31.08,6.51,15.73,3.5,30.05,10.34,42.23,19.74,25.8,19.83,41.96,50.91,41.96,85.12Z"/>
      <path class="cls-1" d="M634.2,730.73v285.03c0,22,8.43,43.14,23.47,58.87l111.48,116.57,83.13,92.8c23.26,25.96,63.29,25.96,86.55,0l83.13-92.8,111.48-116.57c15.05-15.74,23.47-36.87,23.47-58.87v-285.63c0-39.51-26.86-73.65-64.59-82.23-48.27-10.97-118.35-23.1-191.8-22.93-78.32.19-151.63,12.51-201.42,23.45-37.9,8.33-64.9,42.68-64.9,82.3Z"/>
      <path class="cls-22" d="M990.75,861.1v-34.37c0-41-37.48-74.23-83.71-74.23h-59.13c-46.23,0-83.71,33.23-83.71,74.23v34.37c-27.15,5.35-47.63,29.27-47.63,57.99v98.79c0,32.66,26.47,59.13,59.13,59.13h203.56c32.66,0,59.13-26.47,59.13-59.13v-98.79c0-28.72-20.48-52.64-47.63-57.99ZM843.71,791.47h67.51c22.04,0,39.91,15.84,39.91,35.39v33.1h-147.33v-33.1c0-19.54,17.87-35.39,39.91-35.39ZM903.75,973.15c-3.74,3.23-5.85,7.95-5.85,12.89v37.13c0,8.7-7.05,15.74-15.74,15.74h-12.07c-8.7,0-15.74-7.05-15.74-15.74v-37.12c0-4.99-2.18-9.71-5.95-12.97-9.22-8-14.95-19.9-14.56-33.15.64-21.93,18.71-40.19,40.63-41.02,24.12-.92,43.97,18.36,43.97,42.28,0,12.79-5.7,24.24-14.68,31.98Z"/>
      <g>
        <path class="cls-25" d="M1008.83,839.79c0-41-37.48-74.23-83.71-74.23h-59.13c-46.23,0-83.71,33.23-83.71,74.23v41.69h39.61v-41.56c0-19.54,17.87-35.39,39.91-35.39h67.51c22.04,0,39.91,15.84,39.91,35.39v41.56h39.61v-41.69Z"/>
        <rect class="cls-25" x="821.89" y="881.48" width="147.33" height=".08"/>
      </g>
      <path class="cls-22" d="M1194.29,587.92l-162.37,161.95c-4.58,4.58-12.03,4.58-16.61,0l-117.19-117.22c-4.61-4.58-4.61-12.03,0-16.61l33.19-33.19c4.58-4.61,12.03-4.61,16.61,0l67.64,67.61c4.58,4.61,12.03,4.61,16.61,0l88.83-88.8c10.97,2.17,21.37,4.34,31.08,6.51,15.73,3.5,30.05,10.34,42.23,19.74Z"/>
      <path class="cls-25" d="M997.33,873.02h-203.56c-32.66,0-59.13,26.47-59.13,59.13v98.79c0,32.66,26.47,59.13,59.13,59.13h203.56c32.66,0,59.13-26.47,59.13-59.13v-98.79c0-32.66-26.47-59.13-59.13-59.13ZM921.83,986.22c-3.74,3.23-5.85,7.95-5.85,12.89v37.13c0,8.7-7.05,15.74-15.74,15.74h-12.07c-8.7,0-15.74-7.05-15.74-15.74v-37.12c0-4.99-2.18-9.71-5.95-12.97-9.22-8-14.95-19.9-14.56-33.15.64-21.93,18.71-40.19,40.63-41.02,24.12-.92,43.97,18.36,43.97,42.28,0,12.79-5.7,24.24-14.68,31.98Z"/>
      <path class="cls-12" d="M1239.96,555.82l-33.19-33.19c-4.59-4.59-12.03-4.59-16.62,0l-127.83,127.83c-4.59,4.59-12.03,4.59-16.62,0l-67.63-67.63c-4.59-4.59-12.03-4.59-16.62,0l-33.2,33.2c-4.59,4.59-4.59,12.03,0,16.62l117.21,117.21c4.59,4.59,12.02,4.59,16.61.01l177.87-177.42c4.6-4.59,4.6-12.04.01-16.63Z"/>
      <path class="cls-13" d="M463.01,454.68c51.15,31.73-29.14,50.5,30.06,83.78"/>
      <g>
        <line class="cls-3" x1="305.51" y1="712.5" x2="341.46" y2="745.58"/>
        <line class="cls-3" x1="306.73" y1="746.31" x2="340.03" y2="711.93"/>
      </g>
      <circle class="cls-13" cx="1333.38" cy="1309.26" r="77.58"/>
      <circle class="cls-1" cx="1333.38" cy="1309.26" r="41.6"/>
      <path class="cls-18" d="M1358.3,802.54c21.43,58.17,98.99,51.03,121.44,12.25"/>
      <circle class="cls-13" cx="1179.87" cy="1264.64" r="22.35"/>
      <circle class="cls-13" cx="1451.66" cy="1173.56" r="22.35"/>
      <circle class="cls-13" cx="1574.17" cy="1135" r="22.35"/>
      <circle class="cls-13" cx="1514.71" cy="987.53" r="22.35"/>
      <circle class="cls-13" cx="1562.87" cy="544.41" r="22.35"/>
      <path class="cls-22" d="M1060.59,1260.78l-.24.24-51.27,56-.96,1.05c-3.62-2.86-5.94-7.29-5.91-12.27.03-2.11.45-4.1,1.21-5.91-22.24-.93-41.72-4.88-46.81-12.51-6.51-9.77,20.92-27.4,20.92-27.4,0,0-8.44-66.31,21.4-83.16-.42-1.45-.69-2.92-.69-4.49.06-8.59,7.05-15.52,15.64-15.49,8.62.03,15.55,7.05,15.52,15.64-.03,1.36-.24,2.62-.57,3.86,29.9,15.79,25.56,81.44,25.56,81.44,0,0,2.56,1.12,6.21,2.98Z"/>
      <g>
        <g>
          <path class="cls-19" d="M1399.75,749.24c-10.45,0-19.05-8.5-19.16-18.96l-.02-2.1c-.11-10.57,8.39-19.26,18.96-19.37l29.25-.31c10.45,0,19.05,8.5,19.16,18.96l.02,2.1c.06,5.12-1.89,9.95-5.47,13.61s-8.37,5.7-13.49,5.76l-29.25.31Z"/>
          <path class="cls-23" d="M1428.77,711.38c8.88,0,16.18,7.23,16.28,16.11l.02,2.1c.05,4.35-1.6,8.46-4.65,11.57-3.04,3.11-7.11,4.85-11.46,4.89l-29.03.31h-.18c-8.88,0-16.19-7.23-16.28-16.11l-.02-2.1c-.05-4.35,1.6-8.46,4.65-11.57,3.04-3.11,7.11-4.85,11.46-4.89l29.03-.31h.18M1428.77,705.63c-.08,0-.16,0-.24,0l-29.03.31c-12.17.13-21.93,10.11-21.8,22.28l.02,2.1c.13,12.09,9.97,21.8,22.04,21.8.08,0,.16,0,.24,0l29.03-.31c12.17-.13,21.93-10.11,21.8-22.28l-.02-2.1c-.13-12.09-9.97-21.8-22.04-21.8h0Z"/>
        </g>
        <rect class="cls-23" x="1380.84" y="708.43" width="41.01" height="41.01" rx="19.57" ry="19.57" transform="translate(2810.48 1442.67) rotate(179.38)"/>
      </g>
      <g>
        <circle class="cls-24" cx="1033.35" cy="1179.13" r="15.58"/>
        <circle class="cls-24" cx="1037.33" cy="1312.59" r="15.58"/>
        <path class="cls-24" d="M1033.86,1179.65c45.69-.28,40.06,84.84,40.06,84.84,0,0,35.5,15.5,29.46,27.15-9.16,17.64-114.34,21.74-127.22,2.46-6.53-9.77,20.91-27.41,20.91-27.41,0,0-11.04-86.74,36.79-87.04Z"/>
      </g>
      <path class="cls-11" d="M1358.3,802.54c21.43,58.17,98.99,51.03,121.44,12.25"/>
      <path class="cls-11" d="M1372.45,618.43s52.13,42.25,77.66,55.95"/>
      <circle class="cls-13" cx="1618.71" cy="701.64" r="22.35"/>
      <line class="cls-13" x1="379" y1="470" x2="418" y2="465"/>
      <line class="cls-13" x1="399" y1="404" x2="425" y2="432"/>
      <line class="cls-13" x1="457" y1="418" x2="462" y2="379"/>
      <line class="cls-13" x1="492" y1="431" x2="524" y2="414"/>
      <line class="cls-13" x1="425" y1="525" x2="439" y2="489"/>
    </g>
  </g>
</svg>